<svg version="1.1" id="Layer_1" xmlns="http://www.w3.org/2000/svg" xmlns:xlink="http://www.w3.org/1999/xlink" x="0px" y="0px"
	 width="100%" viewBox="0 0 1008 1008" enable-background="new 0 0 1008 1008" xml:space="preserve">
<path fill="#FFFFFF" opacity="1.000000" stroke="none" 
	d="
M862.000000,1009.000000 
	C609.638611,1009.000000 357.277283,1009.000000 104.706703,1008.844543 
	C108.397850,1005.729431 112.895821,1004.092529 117.491264,1002.564392 
	C120.800270,1001.464172 124.039993,1000.068970 127.155922,998.498413 
	C130.472626,996.826660 131.447769,994.024292 130.027069,990.509644 
	C127.417099,984.053101 127.414780,984.054504 134.425980,982.117249 
	C135.389633,981.851013 136.360275,981.606140 137.313004,981.304871 
	C146.224854,978.487000 148.548798,974.846924 147.202469,965.855957 
	C147.103851,965.197388 147.009628,964.532410 146.991714,963.868347 
	C146.805954,956.979126 143.441238,952.435730 137.202164,949.513367 
	C125.309082,943.942627 113.816605,937.509338 101.394623,933.085999 
	C98.364883,932.007141 95.842361,930.161926 93.531021,927.911194 
	C86.489059,921.053589 79.307663,914.339050 72.279625,907.467468 
	C68.347878,903.623230 64.460884,899.654785 62.006855,894.654846 
	C53.451500,877.223755 49.505924,859.094482 52.337181,839.504028 
	C54.240059,826.337402 54.879185,812.980774 55.889286,799.694336 
	C57.152393,783.079895 52.371296,767.797546 45.506573,752.916260 
	C40.538502,742.146545 36.262386,731.171387 38.173004,718.785828 
	C39.415077,710.734131 39.548626,702.560364 39.851379,694.409546 
	C40.011349,690.102844 40.825924,685.067322 44.382042,682.631409 
	C52.824116,676.848694 55.638538,668.223083 57.112480,659.190002 
	C59.607033,643.902100 67.497978,630.567993 71.753563,615.937256 
	C73.462387,610.062256 77.046959,604.591675 76.503761,598.262695 
	C75.933105,591.613708 77.497643,585.421570 78.784370,579.040405 
	C81.163582,567.241333 86.464958,556.290039 88.553429,544.465393 
	C90.284668,534.663330 92.959061,525.369812 98.894142,517.169861 
	C100.825943,514.500916 102.459236,511.467987 103.534409,508.361176 
	C105.210220,503.518799 108.179855,499.827972 112.406570,497.286499 
	C121.014900,492.110413 126.931519,484.239807 133.471573,476.970978 
	C137.490707,472.503998 139.899277,467.324921 140.747925,461.366791 
	C141.126877,458.706299 141.818558,456.087006 144.324158,454.498718 
	C146.867142,452.886719 147.407120,450.616882 147.429901,447.673706 
	C147.478851,441.354095 149.132446,435.611084 154.296417,431.210876 
	C160.264526,426.125488 165.192581,419.681824 166.280502,412.084076 
	C167.176804,405.824524 169.797028,400.430725 171.505341,394.618713 
	C173.541489,387.691376 177.567963,381.089294 183.975876,378.652496 
	C191.742386,375.699097 196.296738,370.455841 200.262802,364.057709 
	C203.206924,359.308197 202.404480,356.501495 197.780212,353.388458 
	C196.293060,352.387329 195.217957,351.209625 195.394836,349.331573 
	C195.580673,347.358521 196.964783,346.286865 198.740036,346.195862 
	C203.163101,345.969208 205.018509,343.158691 206.411255,339.470367 
	C207.762619,335.891510 209.538651,332.475403 210.985718,328.929718 
	C212.614868,324.937958 215.359863,322.388672 219.588242,321.316803 
	C222.865601,320.486023 225.880035,318.868134 228.275833,316.541626 
	C233.223419,311.737152 239.135895,308.310486 244.793823,304.535828 
	C248.946609,301.765350 252.396347,298.340363 254.223419,293.818481 
	C256.096252,289.183441 258.024780,284.589447 260.171906,280.079987 
	C262.437744,275.321136 263.372253,270.351532 263.086151,265.046844 
	C262.881836,261.258270 262.386780,257.247528 264.417236,253.774719 
	C270.302277,243.709290 273.752319,232.401810 280.380371,222.710724 
	C281.273346,221.405121 281.803192,219.595139 281.841217,218.002945 
	C282.063843,208.688721 287.905975,201.871597 293.817322,196.371140 
	C299.815369,190.790054 304.846191,184.966415 308.498810,177.834076 
	C311.191772,172.575546 317.087738,169.553925 318.699890,163.797134 
	C320.245483,158.277939 323.848846,153.811966 325.479492,148.370255 
	C326.928162,143.535843 330.904266,140.923996 335.450714,139.290466 
	C337.341492,138.611115 339.054230,137.556839 340.863708,136.855774 
	C346.757080,134.572403 349.702545,128.154388 355.745941,126.345100 
	C370.543060,121.915100 380.746216,111.532677 390.220490,100.170135 
	C394.842682,94.626701 400.496704,90.813065 407.497345,88.901352 
	C411.385620,87.839539 415.079681,86.119102 417.932190,83.206299 
	C428.602936,72.310211 442.803406,72.225548 456.392120,71.106308 
	C463.590118,70.513443 470.967072,72.203094 478.271301,72.754906 
	C484.026489,73.189697 489.412231,74.860809 494.436157,77.576363 
	C499.349823,80.232292 504.531494,82.149376 510.030182,82.637665 
	C527.690186,84.205887 544.161499,91.259651 561.778992,93.300629 
	C577.370117,95.106857 590.151184,105.425423 605.065857,109.665092 
	C606.138611,109.970047 607.033142,110.890007 608.021118,111.506996 
	C619.914490,118.933960 628.234985,130.249786 638.348328,139.608963 
	C647.370300,147.958252 655.782959,156.877045 665.645874,164.392242 
	C675.131592,171.620041 684.225525,179.508896 689.925842,190.496307 
	C693.363525,197.122452 698.239929,202.360931 705.420044,205.441360 
	C710.784302,207.742752 715.081482,211.785080 719.394165,215.793030 
	C733.634888,229.027649 742.167480,246.268967 752.540100,262.215424 
	C758.725769,271.725037 764.743958,281.337006 774.413513,287.838898 
	C776.188965,289.032745 776.986450,290.781799 777.862671,292.601624 
	C782.046692,301.291809 785.483215,310.336182 790.389160,318.686859 
	C793.842529,324.564789 798.112610,330.221954 800.220520,336.574097 
	C803.935730,347.770203 808.824097,358.172211 815.864136,367.574280 
	C818.249573,370.760071 821.567078,373.404419 823.325989,376.870911 
	C827.236816,384.578491 832.726196,390.921967 838.599121,397.072754 
	C843.234863,401.927887 847.172668,407.236633 849.131714,413.830963 
	C850.222473,417.502869 851.642517,421.086151 854.040222,424.164246 
	C857.354553,428.419128 859.315796,433.310211 861.394592,438.257477 
	C866.319031,449.976837 872.287109,461.042877 874.859619,473.925171 
	C876.724304,483.262665 880.217346,492.363983 880.933960,502.058746 
	C881.358459,507.801819 883.397095,512.948730 888.238647,516.250122 
	C895.134949,520.952576 897.468201,527.609924 897.984802,535.484802 
	C898.430908,542.283936 900.744568,548.771851 904.990234,553.913452 
	C908.680725,558.382812 911.265625,562.994141 913.263855,568.411865 
	C919.197510,584.498962 925.146179,600.554993 930.445923,616.882141 
	C934.583801,629.629761 938.850098,642.550537 947.606262,653.260010 
	C952.130798,658.793884 954.710693,665.168823 955.610168,672.352356 
	C956.801514,681.867554 964.262085,689.143799 965.442566,698.731628 
	C965.477722,699.017639 965.798645,699.289551 966.028198,699.527649 
	C976.862183,710.768921 972.993713,725.938293 976.581238,739.114563 
	C976.700500,739.552551 976.465942,740.098999 976.355164,740.585571 
	C974.479187,748.824036 974.583618,757.110657 975.661438,765.436584 
	C976.090088,768.748047 976.835388,772.368774 975.501770,775.346802 
	C971.073975,785.233826 971.380859,794.392029 976.199707,804.328308 
	C979.324890,810.772400 976.054138,816.604858 970.057617,818.476440 
	C966.065613,819.722412 964.778625,822.082642 964.904114,825.825867 
	C965.083252,831.171204 964.829407,836.457581 963.563416,841.704529 
	C960.360901,854.977539 957.272217,868.274292 955.216736,881.793518 
	C954.202026,888.467346 951.935425,894.569458 947.085083,899.672668 
	C941.534241,905.513000 937.371155,912.171021 935.525330,920.310974 
	C934.208496,926.117981 932.007935,931.747192 930.287292,937.485168 
	C928.775513,942.526611 926.782043,947.784363 922.827148,951.469116 
	C917.249207,956.665894 914.270264,962.261353 914.787659,970.288025 
	C915.255493,977.544983 909.569702,981.427246 902.746582,979.236572 
	C899.201111,978.098267 897.259216,978.798035 895.249939,981.747620 
	C890.152222,989.231201 883.799561,994.321167 873.874329,994.024231 
	C866.346863,993.799072 861.075623,1001.049622 862.000000,1009.000000 
M308.039368,708.461670 
	C300.279846,724.533081 292.520325,740.604553 284.252289,757.729126 
	C291.838013,757.729126 297.953522,757.729126 304.069061,757.729065 
	C447.717621,757.727539 591.366760,757.897583 735.013489,757.388489 
	C746.134094,757.349060 751.931641,759.961731 755.030640,770.602539 
	C757.622070,779.500549 763.092285,787.430054 765.433228,796.497986 
	C767.257751,803.565308 765.704102,805.379639 758.614807,805.373291 
	C737.451111,805.354492 716.287476,805.249634 695.123779,805.246765 
	C547.310181,805.227112 399.496552,805.224121 251.682953,805.218018 
	C242.351028,805.217590 233.018677,805.291931 223.687363,805.220703 
	C218.651505,805.182251 217.403183,803.663818 218.160690,798.787415 
	C218.700195,795.314331 219.808304,792.012024 221.293167,788.812073 
	C234.610580,760.112122 247.885529,731.392578 261.197968,702.690369 
	C264.159637,696.304871 263.606323,695.411865 256.327057,695.410889 
	C236.496246,695.408203 216.663940,695.555420 196.835709,695.333069 
	C192.053238,695.279480 189.183701,696.672302 187.120499,701.144531 
	C176.169174,724.882690 164.704086,748.386841 153.973907,772.222839 
	C147.782242,785.976868 145.551819,800.523132 148.442978,815.645386 
	C153.991867,844.668945 179.562836,866.494934 209.096588,866.859741 
	C239.749023,867.238586 270.404938,867.488708 301.059540,867.513916 
	C429.043488,867.619202 557.027527,867.677185 685.011536,867.612305 
	C713.831360,867.597717 742.672852,868.454163 771.467590,866.663391 
	C785.555542,865.787109 798.685913,861.643188 809.822021,852.665100 
	C834.417847,832.835510 842.042603,799.356567 828.757812,769.897949 
	C818.557251,747.278381 808.129517,724.761047 797.981628,702.118103 
	C795.889709,697.450562 793.122009,695.327637 787.741272,695.358154 
	C753.746765,695.551392 719.750427,695.424744 685.754700,695.413452 
	C671.467773,695.408752 671.634521,695.342834 665.606506,682.244873 
	C654.328735,657.740234 642.897827,633.305542 631.416748,608.895264 
	C619.722595,584.032104 607.840088,559.257507 596.134705,534.399597 
	C584.929260,510.603302 574.157288,486.597748 562.633911,462.957550 
	C546.068604,428.973877 530.004944,394.755554 513.836182,360.585358 
	C511.692047,356.054016 509.303070,351.672455 506.118896,347.777252 
	C500.943359,341.446045 493.556244,339.152191 486.540161,341.849274 
	C481.024963,343.969391 477.950348,348.574463 475.557190,353.613525 
	C464.912903,376.026489 454.368500,398.486847 443.764130,420.918854 
	C420.990967,469.092041 398.176941,517.245972 375.428772,565.430969 
	C353.035370,612.864319 330.702637,660.326416 308.039368,708.461670 
M567.303162,229.208069 
	C561.808289,224.315628 555.857300,220.107620 549.365112,216.598175 
	C519.640503,200.530121 488.276245,197.825745 456.469299,207.667480 
	C425.289368,217.315231 404.244934,239.349075 390.287933,268.381500 
	C378.892242,292.085938 367.708954,315.892426 356.404083,339.640564 
	C332.569550,389.709900 308.674652,439.750488 284.890900,489.843872 
	C273.894409,513.004639 263.122284,536.271851 252.209061,559.472229 
	C238.529739,588.553223 224.782013,617.601990 211.131302,646.696350 
	C208.404999,652.507019 209.197205,653.630676 215.767426,653.644897 
	C236.264328,653.689331 256.762909,653.534180 277.257233,653.768860 
	C281.977325,653.822998 284.545807,652.109558 286.494629,647.953430 
	C303.108673,612.522583 319.871033,577.161316 336.571777,541.771179 
	C359.026062,494.188782 381.510406,446.620514 403.896057,399.005890 
	C421.112274,362.386749 438.174469,325.695190 455.359039,289.061127 
	C458.361053,282.661377 462.252594,277.009979 468.503662,273.131470 
	C488.078918,260.985962 518.821655,264.670593 530.888550,290.138031 
	C541.583191,312.709198 552.420898,335.213135 563.012268,357.832581 
	C591.187012,418.004028 619.317871,478.196136 647.357483,538.430664 
	C664.365784,574.967834 681.192627,611.589539 698.033630,648.204224 
	C699.534607,651.467468 701.156006,653.751282 705.312683,653.722229 
	C726.475220,653.574402 747.639465,653.690308 768.802673,653.605042 
	C774.470642,653.582214 775.476135,651.950684 773.127197,646.894653 
	C769.268066,638.588074 765.233765,630.362976 761.331604,622.076111 
	C742.813904,582.749939 724.201050,543.468140 705.845886,504.066254 
	C689.815857,469.655731 674.220215,435.042908 658.185303,400.634735 
	C638.840210,359.123383 619.177795,317.759979 599.768188,276.278534 
	C591.668335,258.967834 582.656006,242.346115 567.303162,229.208069 
z"/>
<path fill="#FFFFFF" opacity="1.000000" stroke="none" 
	d="
M967.394714,891.233276 
	C966.049255,892.698181 964.944336,893.930054 963.674072,894.957581 
	C962.205139,896.145813 960.447632,897.113464 958.797058,895.441711 
	C957.098022,893.720886 956.953186,891.578674 958.313293,889.532043 
	C960.493835,886.250671 964.141846,885.577515 967.466675,884.253906 
	C969.590637,886.647339 968.148682,888.778992 967.394714,891.233276 
z"/>
<path fill="#FFFFFF" opacity="1.000000" stroke="none" 
	d="
M393.351868,695.726929 
	C388.670288,695.361694 389.719147,693.017212 390.974884,690.526733 
	C395.547455,681.457764 400.244781,672.447876 404.625153,663.286621 
	C419.414795,632.355103 434.111420,601.379028 448.800110,570.399353 
	C462.420807,541.672302 475.977997,512.915161 489.594543,484.186127 
	C490.406036,482.473938 490.704773,479.894653 493.256866,480.042114 
	C495.558594,480.175140 495.440002,482.715607 496.184082,484.268066 
	C512.157959,517.596497 528.155457,550.913879 544.004150,584.301880 
	C559.920593,617.832520 575.671692,651.441589 591.522095,685.003662 
	C592.991943,688.115906 594.654968,691.136841 596.186707,694.119202 
	C594.106201,696.148071 592.000916,695.407898 590.116882,695.409546 
	C534.478638,695.457458 478.840363,695.440857 423.202087,695.477112 
	C413.379761,695.483521 403.557526,695.677917 393.351868,695.726929 
z"/>
</svg>